HIERARCHY
ROOT RootJoint
{
    OFFSET   0.000000   0.000000   0.000000
    CHANNELS 6 Xposition Yposition Zposition Xrotation Yrotation Zrotation
    JOINT pelvis_lowerback
    {
        OFFSET   0.000000   0.093605   0.000000
        CHANNELS 3 Xrotation Yrotation Zrotation
        JOINT lowerback_torso
        {
            OFFSET   0.000000   0.100000   0.000000
            CHANNELS 3 Xrotation Yrotation Zrotation
            JOINT torso_head
            {
                OFFSET   0.000000   0.282350   0.000000
                CHANNELS 3 Xrotation Yrotation Zrotation
                End Site
                {
                    OFFSET   0.000000   0.192650   0.000000
                }
            }
            JOINT rTorso_Clavicle
            {
                OFFSET  -0.001000   0.157500   0.000000
                CHANNELS 3 Xrotation Yrotation Zrotation
                JOINT rShoulder
                {
                    OFFSET  -0.117647   0.000000   0.000000
                    CHANNELS 3 Xrotation Yrotation Zrotation
                    JOINT rElbow
                    {
                        OFFSET  -0.245000   0.000000   0.000000
                        CHANNELS 3 Xrotation Yrotation Zrotation
                        JOINT rWrist
                        {
                            OFFSET  -0.240000   0.000000   0.000000
                            CHANNELS 3 Xrotation Yrotation Zrotation
                            End Site
                            {
                                OFFSET  -0.116353  -0.002500   0.000000
                            }
                        }
                    }
                }
            }
            JOINT lTorso_Clavicle
            {
                OFFSET   0.001000   0.157500   0.000000
                CHANNELS 3 Xrotation Yrotation Zrotation
                JOINT lShoulder
                {
                    OFFSET   0.117647   0.000000   0.000000
                    CHANNELS 3 Xrotation Yrotation Zrotation
                    JOINT lElbow
                    {
                        OFFSET   0.245000   0.000000   0.000000
                        CHANNELS 3 Xrotation Yrotation Zrotation
                        JOINT lWrist
                        {
                            OFFSET   0.240000   0.000000   0.000000
                            CHANNELS 3 Xrotation Yrotation Zrotation
                            End Site
                            {
                                OFFSET   0.116353  -0.002500   0.000000
                            }
                        }
                    }
                }
            }
        }
    }
    JOINT rHip
    {
        OFFSET  -0.100000  -0.051395   0.000000
        CHANNELS 3 Xrotation Yrotation Zrotation
        JOINT rKnee
        {
            OFFSET   0.000000  -0.410000   0.000000
            CHANNELS 3 Xrotation Yrotation Zrotation
            JOINT rAnkle
            {
                OFFSET   0.000000  -0.390000   0.000000
                CHANNELS 3 Xrotation Yrotation Zrotation
                JOINT rToeJoint
                {
                    OFFSET   0.000000  -0.050000   0.130000
                    CHANNELS 3 Xrotation Yrotation Zrotation
                    End Site
                    {
                        OFFSET  -0.010000   0.002000   0.060000
                    }
                }
            }
        }
    }
    JOINT lHip
    {
        OFFSET   0.100000  -0.051395   0.000000
        CHANNELS 3 Xrotation Yrotation Zrotation
        JOINT lKnee
        {
            OFFSET   0.000000  -0.410000   0.000000
            CHANNELS 3 Xrotation Yrotation Zrotation
            JOINT lAnkle
            {
                OFFSET   0.000000  -0.390000   0.000000
                CHANNELS 3 Xrotation Yrotation Zrotation
                JOINT lToeJoint
                {
                    OFFSET   0.000000  -0.050000   0.130000
                    CHANNELS 3 Xrotation Yrotation Zrotation
                    End Site
                    {
                        OFFSET   0.010000   0.002000   0.060000
                    }
                }
            }
        }
    }
}
MOTION
Frames: 14
Frame Time:   0.008333
 -2.376719   0.925631   3.975860   0.000000   0.000000   0.000000   0.000000   0.000000   0.000000   0.000000   0.000000   0.000000   0.000000   0.000000   0.000000   0.000000   0.000000   0.000000   0.000000   0.000000   0.000000   0.000000   0.000000   0.000000   0.000000   0.000000   0.000000   0.000000   0.000000   0.000000   0.000000   0.000000   0.000000   0.000000   0.000000   0.000000   0.000000   0.000000   0.000000   0.000000   0.000000   0.000000   0.000000   0.000000   0.000000   0.000000   0.000000   0.000000   0.000000   0.000000   0.000000   0.000000   0.000000   0.000000   0.000000   0.000000   0.000000   0.000000   0.000000   0.000000   0.000000   0.000000   0.000000
 -2.376240   0.926016   3.976163  -1.791787   0.366206   0.211510   2.020061  -0.066839  -0.186364   0.394843  -0.123323  -0.006898  -0.181788   0.016049   0.073149  -0.117480  -0.199752   0.196997   0.321573  -0.161042   2.187623   0.005128   0.245975  -0.001781   0.166230   0.033919  -2.549629  -0.258740  -0.010186  -0.085170   0.002633  -0.294131  -1.994385   0.022067  -1.215419   0.004149   0.238216   0.748414   2.139897   1.294761  -0.448826  -0.390870   1.822751   0.002960  -0.001300  -1.449225  -0.478996   0.131576   0.007292   0.000004  -0.000035   1.749803  -0.367155  -0.227610   1.350266   0.000323   0.000059  -1.846330  -0.132870   0.141526   0.274272  -0.000276  -0.000302
 -2.375528   0.926701   3.976560  -3.671637   0.911912   0.443760   3.980474  -0.224284  -0.322841   0.978018  -0.359940   0.009762  -0.275423   0.038683   0.140669  -0.217242  -0.425489   1.071121   0.648033  -0.327541   4.922517   0.011438   0.475171  -0.003198   0.359600   0.112429  -4.369941  -0.500115  -0.137313  -0.822905  -0.013918  -0.696188  -4.378518   0.050421  -2.429412   0.008094   0.486449   1.016853   3.534902   2.492569  -0.911199  -0.901805   3.820597   0.007805   0.000218  -2.789275  -0.940068   0.237549   0.004168  -0.000003  -0.000018   3.692405  -0.725211  -0.424370   2.903274   0.000538   0.002851  -3.571086  -0.264251   0.265838   0.444546  -0.000394  -0.000125
 -2.374687   0.927298   3.977004  -5.459596   1.552407   0.674893   5.809364  -0.450903  -0.397337   1.555167  -0.672547   0.062638  -0.346134   0.061140   0.203614  -0.307829  -0.651195   2.365463   0.978663  -0.485350   8.013578   0.017485   0.687764  -0.004119   0.553497   0.199414  -5.406034  -0.728757  -0.337440  -1.970106  -0.052655  -1.139318  -6.946586   0.077479  -3.592418   0.010750   0.734254   1.050300   4.183432   3.493617  -1.359743  -1.472129   5.704862   0.013027   0.002707  -4.036052  -1.374149   0.323707   0.009520   0.000012  -0.000026   5.677908  -1.056677  -0.548432   4.442728   0.000644   0.006857  -5.176732  -0.388861   0.377135   0.604757  -0.000494   0.000204
 -2.373781   0.927529   3.977484  -7.130689   2.237024   0.906790   7.510114  -0.723513  -0.418681   2.092092  -1.032758   0.148300  -0.412085   0.082135   0.262392  -0.391575  -0.873032   3.903750   1.315016  -0.631827  11.347132   0.022622   0.884937  -0.004637   0.742415   0.287138  -5.865459  -0.947197  -0.579482  -3.353290  -0.112469  -1.595442  -9.575910   0.099842  -4.695099   0.012350   0.976538   0.961906   4.297205   4.298949  -1.790247  -2.083806   7.434173   0.017844   0.004908  -5.200609  -1.781953   0.393457   0.007534   0.000003  -0.000018   7.672497  -1.363790  -0.599680   5.929039   0.000713   0.010928  -6.673927  -0.506707   0.477662   0.750208  -0.000571   0.000545
 -2.372841   0.927184   3.977993  -8.687875   2.935153   1.141719   9.092693  -1.026201  -0.393725   2.587639  -1.422413   0.265835  -0.475818   0.101577   0.315423  -0.468866  -1.093574   5.583294   1.652796  -0.764466  14.797371   0.026542   1.067007  -0.004840   0.923972   0.369338  -5.909202  -1.156976  -0.841898  -4.857192  -0.190841  -2.047792 -12.187945   0.116276  -5.734890   0.013222   1.210100   0.806286   4.056882   4.927787  -2.199591  -2.727602   9.012519   0.021873   0.006394  -6.289251  -2.164643   0.449503  -0.002448  -0.000036  -0.000005   9.661626  -1.648955  -0.586778   7.356675   0.000797   0.014515  -8.070387  -0.618156   0.568951   0.881530  -0.000623   0.000834
 -2.371862   0.926098   3.978524 -10.139397   3.623998   1.378014  10.566808  -1.348318  -0.322702   3.046508  -1.829640   0.423679  -0.536849   0.119697   0.360151  -0.538320  -1.318014   7.362562   1.976948  -0.877591  18.174146   0.029077   1.233642  -0.004783   1.096563   0.439007  -5.613763  -1.358569  -1.108774  -6.408597  -0.284534  -2.484960 -14.735781   0.126721  -6.711709   0.013632   1.432740   0.614775   3.588408   5.401244  -2.584891  -3.396776  10.451830   0.024979   0.007080  -7.307037  -2.523347   0.494149  -0.018379  -0.000097   0.000008  11.635448  -1.913605  -0.521255   8.726025   0.000950   0.017345  -9.372906  -0.723520   0.652234   1.000300  -0.000648   0.001047
 -2.371008   0.923615   3.978357 -10.736176   4.034387   1.368797  11.290471  -1.585992  -0.000159   3.266897  -2.129180   0.562061  -0.530899   0.007778   0.303392  -0.555572  -1.493698   8.719088   2.416589  -0.995227  21.178371   0.030360   1.407247  -0.004694   1.209450   0.571115  -4.386926  -1.337139  -1.274254  -7.266077  -0.233658  -2.793445 -17.519998   0.126858  -7.554179   0.015318   1.589925   0.214051   2.493469   4.494729  -3.046282  -3.892082  12.825417   0.029977  -0.000245  -8.042568  -2.964406   0.670910   0.191930   0.000532  -0.001111  12.965059  -2.076126  -0.251477   9.002288   0.000653   0.014500 -10.740443  -0.770232   0.726719   1.301246  -0.000993   0.001381
 -2.370228   0.919970   3.978030 -11.230248   4.453567   1.333300  11.990041  -1.850149   0.349846   3.438671  -2.424057   0.728013  -0.541867  -0.105924   0.253813  -0.564489  -1.681238   9.825529   2.837124  -1.105854  23.874323   0.029871   1.561408  -0.004457   1.309156   0.671610  -3.251099  -1.313706  -1.397788  -7.904204  -0.190849  -3.056479 -20.023615   0.121522  -8.328577   0.016460   1.734136  -0.128348   1.435234   3.515317  -3.488834  -4.354549  15.094880   0.032618  -0.006007  -8.716749  -3.382455   0.830364   0.433882   0.001088  -0.002131  14.173279  -2.235345   0.060099   9.079318   0.000472   0.011774 -12.030413  -0.816355   0.795606   1.542087  -0.001190   0.001539
 -2.369502   0.915275   3.977633 -11.679825   4.868233   1.299468  12.672221  -2.110284   0.699165   3.613832  -2.711668   0.905670  -0.550398  -0.213318   0.212116  -0.562694  -1.879558  10.753432   3.239621  -1.211020  26.317417   0.028319   1.697599  -0.004147   1.397037   0.726420  -2.306630  -1.296826  -1.499277  -8.385710  -0.160262  -3.292992 -22.278617   0.113348  -9.047543   0.017103   1.866875  -0.425656   0.560709   2.560385  -3.891261  -4.806843  17.205081   0.033446  -0.009950  -9.345218  -3.774378   0.974114   0.658207   0.001448  -0.002772  15.285528  -2.378814   0.375286   9.113773   0.000349   0.009498 -13.236559  -0.860734   0.859250   1.758372  -0.001304   0.001629
 -2.368826   0.909609   3.977206 -12.096631   5.263086   1.270278  13.332278  -2.355874   1.041424   3.796011  -2.985348   1.087301  -0.553800  -0.313687   0.175689  -0.550654  -2.083245  11.545354   3.624606  -1.309932  28.545925   0.026200   1.818254  -0.003796   1.476462   0.741316  -1.521694  -1.284852  -1.581729  -8.751033  -0.139384  -3.505892 -24.322096   0.103842  -9.715951   0.017290   1.990807  -0.690144  -0.147738   1.645239  -4.255336  -5.248271  19.165254   0.032958  -0.012632  -9.931795  -4.141378   1.103897   0.863164   0.001651  -0.003139  16.313993  -2.506754   0.682506   9.134267   0.000260   0.007644 -14.362619  -0.903283   0.918146   1.957006  -0.001356   0.001654
 -2.367888   0.908078   3.978149 -12.881581   5.033972   1.974424  14.109706  -2.430854   0.762122   4.130394  -3.138460   0.975650  -0.530921  -0.402808   0.117019  -0.550259  -2.258110  12.571894   3.979351  -1.375366  30.723029   0.024389   1.930908  -0.003331   1.553102   0.724936  -0.903198  -1.240230  -1.594922  -9.287838  -0.102651  -3.646097 -26.254241   0.095388 -10.307182   0.016856   2.109697  -0.811197  -0.631214   1.330043  -4.589910  -6.246549  21.296041   0.026695  -0.023985 -10.348123  -4.499092   1.264443   1.099272   0.001414  -0.004665  17.065930  -2.494770  -0.077364   9.487178   0.000529   0.006055 -15.079720  -0.890677   0.882768   2.287224  -0.000717   0.001386
 -2.367362   0.907088   3.979541 -13.511465   4.752180   2.289342  14.720020  -2.500603   0.861662   4.386483  -3.260823   0.945371  -0.510276  -0.486748   0.054655  -0.535290  -2.445958  13.374707   4.321844  -1.442621  32.717210   0.022390   2.033463  -0.002766   1.627127   0.710159  -0.204142  -1.162438  -1.556620  -9.773434  -0.049786  -3.747228 -28.124592   0.086497 -10.851870   0.016165   2.218627  -0.873661  -1.299987   0.964352  -4.907169  -6.723881  23.088402   0.018504  -0.030543 -10.854320  -4.821665   1.369247   1.334753   0.000915  -0.005842  17.740663  -2.523457  -0.467003   9.811424   0.000542   0.004261 -15.901909  -0.900035   0.878195   2.476584  -0.000443   0.000790
 -2.367316   0.906389   3.981375 -13.795034   4.593306   2.370693  14.954905  -2.728832   1.061583   4.491057  -3.415402   1.088391  -0.405514  -0.608887  -0.019026  -0.560581  -2.726425  13.689196   4.657954  -1.624520  34.274146   0.022381   2.249096  -0.001626   1.679708   0.770447   1.185200  -0.948050  -1.449141  -9.995676   0.088616  -3.741859 -29.834877   0.076430 -11.350184   0.015557   2.295824  -0.997954  -2.287179   0.520424  -5.126349  -6.800406  24.386491   0.011605  -0.029263 -11.157055  -5.108620   1.342437   1.634207   0.000423  -0.006574  18.097798  -2.378993  -0.559208   9.970494   0.000442   0.003440 -15.919612  -0.777130   0.898316   2.578358  -0.000369   0.000759
